<svg xmlns="http://www.w3.org/2000/svg" viewBox="0 0 100 100">
  <defs>
    <linearGradient id="bodyGradient" x1="0%" y1="0%" x2="100%" y2="0%">
      <stop offset="0%" style="stop-color:#2c3e50;stop-opacity:1" />
      <stop offset="50%" style="stop-color:#34495e;stop-opacity:1" />
      <stop offset="100%" style="stop-color:#3498db;stop-opacity:1" />
    </linearGradient>
    <radialGradient id="noseGradient" cx="50%" cy="30%" r="70%" fx="50%" fy="30%">
      <stop offset="0%" style="stop-color:#e74c3c;stop-opacity:1" />
      <stop offset="70%" style="stop-color:#c0392b;stop-opacity:1" />
      <stop offset="100%" style="stop-color:#a93226;stop-opacity:1" />
    </radialGradient>
    <filter id="glow">
      <feGaussianBlur stdDeviation="2.5" result="coloredBlur"/>
      <feMerge>
        <feMergeNode in="coloredBlur"/>
        <feMergeNode in="SourceGraphic"/>
      </feMerge>
    </filter>
  </defs>
  
  <!-- Missile body with enhanced gradient and glow effect -->
  <path d="M20 50 Q30 48 40 47 L75 47 Q80 48 80 50 L75 90 Q50 92 25 90 Z" fill="url(#bodyGradient)" stroke="#1abc9c" stroke-width="1.5" filter="url(#glow)"/>
  
  <!-- Highlights for the body -->
  <path d="M20 50 Q35 45 50 20 Q65 45 80 50 L75 90 Q50 92 25 90 Z" fill="rgba(255, 255, 255, 0.1)" />
  
  <!-- Missile nose with enhanced gradient and detail -->
  <path d="M30 50 Q50 10 70 50 Q50 45 30 50 Z" fill="url(#noseGradient)" stroke="#8e44ad" stroke-width="1.5"/>
  <ellipse cx="50" cy="40" rx="5" ry="15" fill="rgba(255,255,255,0.2)" transform="rotate(-45 50 40)"/>
  
  <!-- Enhanced fins -->
  <path d="M25 90 L10 105 Q17 97 25 95 Z" fill="#34495e" stroke="#2c3e50" stroke-width="1"/>
  <path d="M75 90 L90 105 Q83 97 75 95 Z" fill="#34495e" stroke="#2c3e50" stroke-width="1"/>
  
  <!-- Dynamic thrust -->
  <g>
    <path d="M35 90 L50 115 L65 90 Z" fill="#f39c12">
      <animate attributeName="d" 
               values="M35 90 L50 115 L65 90 Z;M38 90 L50 110 L62 90 Z;M35 90 L50 115 L65 90 Z" 
               dur="0.5s" 
               repeatCount="indefinite"/>
    </path>
    <path d="M40 90 L50 110 L60 90 Z" fill="#f1c40f">
      <animate attributeName="d" 
               values="M40 90 L50 110 L60 90 Z;M42 90 L50 105 L58 90 Z;M40 90 L50 110 L60 90 Z" 
               dur="0.5s" 
               repeatCount="indefinite"/>
    </path>
    <path d="M45 90 L50 105 L55 90 Z" fill="#ffca18">
      <animate attributeName="d" 
               values="M45 90 L50 105 L55 90 Z;M46 90 L50 100 L54 90 Z;M45 90 L50 105 L55 90 Z" 
               dur="0.5s" 
               repeatCount="indefinite"/>
    </path>
  </g>
  
  <!-- Subtle smoke effect -->
  <g opacity="0.3">
    <circle cx="45" cy="100" r="2" fill="#bdc3c7">
      <animate attributeName="cy" values="100;85;100" dur="2s" repeatCount="indefinite" />
      <animate attributeName="opacity" values="0.3;0;0.3" dur="2s" repeatCount="indefinite" />
    </circle>
    <circle cx="55" cy="100" r="2" fill="#bdc3c7">
      <animate attributeName="cy" values="100;90;100" dur="1.8s" repeatCount="indefinite" />
      <animate attributeName="opacity" values="0.3;0;0.3" dur="1.8s" repeatCount="indefinite" />
    </circle>
  </g>
</svg>